<svg width="17" height="19" viewBox="0 0 17 19" fill="none" xmlns="http://www.w3.org/2000/svg">
<path d="M11.653 3.02645C12.436 2.28847 12.9657 1.26389 12.8207 0.242188C11.6926 0.27763 10.3253 0.825152 9.51546 1.56307C8.78951 2.21637 8.15393 3.26042 8.32355 4.26207C9.58243 4.33705 10.8685 3.76324 11.653 3.02645ZM14.0556 10.0824C14.0315 7.79183 16.1156 6.69171 16.208 6.63858C15.0363 5.08307 13.2115 4.87023 12.5615 4.84622C11.0077 4.70267 9.53181 5.67461 8.7429 5.67461C7.95719 5.67461 6.74194 4.86506 5.45325 4.88685C3.75904 4.91139 2.19795 5.77982 1.32787 7.15625C-0.43212 9.92514 0.876782 14.0268 2.59173 16.2728C3.43007 17.3722 4.42828 18.6057 5.73904 18.5611C7.00439 18.5165 7.48135 17.8202 9.00795 17.8202C10.5352 17.8202 10.9628 18.5611 12.2989 18.5388C13.6585 18.5165 14.5189 17.4181 15.3501 16.3151C16.3119 15.04 16.7083 13.8055 16.731 13.7431C16.7018 13.7282 14.0835 12.8215 14.0556 10.0824Z" fill="white"/>
</svg>
