<svg width="17" height="19" viewBox="0 0 17 19" fill="none" xmlns="http://www.w3.org/2000/svg">
<path d="M12.4748 6.47051C10.4278 5.30848 7.14227 3.44253 2.0462 0.546565C1.70266 0.316269 1.30739 0.286088 0.96582 0.403422L9.70922 9.27729L12.4748 6.47051Z" fill="#32BBFF"/>
<path d="M0.965169 0.40332C0.90117 0.425325 0.838863 0.451872 0.779304 0.483934C0.402144 0.691002 0.125 1.08947 0.125 1.59337V16.9611C0.125 17.465 0.402144 17.8634 0.779304 18.0705C0.838792 18.1025 0.901028 18.1291 0.965028 18.1513L9.70864 9.27726L0.965169 0.40332Z" fill="#32BBFF"/>
<path d="M9.70846 9.27686L0.964844 18.151C1.30648 18.2691 1.70182 18.2413 2.0455 18.0076C6.98756 15.199 10.236 13.3551 12.3067 12.1832C12.3644 12.1504 12.4208 12.1183 12.4766 12.0864L9.70846 9.27686Z" fill="#32BBFF"/>
<path d="M0.125 9.27686V16.9608C0.125 17.4647 0.402144 17.8631 0.779304 18.0701C0.838792 18.1022 0.901028 18.1288 0.965028 18.151L9.70864 9.27686H0.125Z" fill="#2C9FD9"/>
<path d="M2.04464 0.546492C1.6366 0.273059 1.15548 0.28085 0.77832 0.484005L9.57494 9.41193L12.4732 6.47044C10.4262 5.30841 7.1407 3.44246 2.04464 0.546492Z" fill="#29CC5E"/>
<path d="M9.57501 9.14258L0.77832 18.0705C1.15555 18.2736 1.6366 18.2853 2.04464 18.008C6.9867 15.1993 10.2352 13.3555 12.3058 12.1836C12.3635 12.1507 12.42 12.1186 12.4758 12.0868L9.57501 9.14258Z" fill="#D93F21"/>
<path d="M16.1252 9.27704C16.1252 8.85126 15.9134 8.42154 15.4939 8.18325C15.4939 8.18325 14.7092 7.73887 12.3042 6.37354L9.44336 9.27704L12.3069 12.1833C14.6856 10.8279 15.4939 10.3708 15.4939 10.3708C15.9134 10.1325 16.1252 9.70282 16.1252 9.27704Z" fill="#FFD500"/>
<path d="M15.4939 10.3706C15.9134 10.1324 16.1252 9.70264 16.1252 9.27686H9.44336L12.3069 12.1832C14.6857 10.8277 15.4939 10.3706 15.4939 10.3706Z" fill="#FFAA00"/>
</svg>
