<svg width="550" height="126" viewBox="0 0 550 126" fill="none" xmlns="http://www.w3.org/2000/svg">
<rect x="0.25" y="1.25" width="99.5" height="49.5" rx="9.75" fill="white" stroke="black" stroke-width="0.5"/>
<rect x="150.25" y="0.515625" width="99.5" height="49.5" rx="9.75" fill="white" stroke="black" stroke-width="0.5"/>
<rect x="300.25" y="0.515625" width="99.5" height="49.5" rx="9.75" fill="white" stroke="#747474" stroke-width="0.5"/>
<rect x="150.25" y="75.5156" width="99.5" height="49.5" rx="9.75" fill="white" stroke="black" stroke-width="0.5"/>
<rect x="300.25" y="75.5156" width="99.5" height="49.5" rx="9.75" fill="white" stroke="black" stroke-width="0.5"/>
<rect x="450.25" y="75.5156" width="99.5" height="49.5" rx="9.75" fill="white" stroke="black" stroke-width="0.5"/>
<rect x="0.25" y="75.5156" width="99.5" height="49.5" rx="9.75" fill="white" stroke="black" stroke-width="0.5"/>
<rect x="450.25" y="0.515625" width="99.5" height="49.5" rx="9.75" fill="white" stroke="black" stroke-width="0.5"/>
<path d="M51.0021 26.0682C51.0021 24.3534 50.3649 23.3524 49.0898 23.3524C48.0903 23.3524 47.1471 24.1869 47.1471 26.0532C47.1471 27.8734 47.8276 28.8744 49.0898 28.8744C50.1158 28.8744 51.0021 27.995 51.0021 26.0682H51.0021ZM50.8388 29.2123C50.3171 29.7015 49.673 30.0295 48.9356 30.0295C47.0644 30.0295 45.8463 28.8447 45.8463 26.19C45.8463 23.9742 47.1206 22.2145 49.2007 22.2145C49.8856 22.2145 50.5076 22.5556 51.0112 23.0607C51.0015 22.7871 51.0015 22.4991 51.0015 22.2145H52.3366C52.3221 22.8962 52.3062 23.7361 52.3062 24.4808V27.8361C52.3062 32.498 51.047 33.5147 48.6989 33.5147C47.7474 33.5147 46.858 33.3408 46.1199 33.024L46.2444 31.8661C46.858 32.1687 47.6859 32.3588 48.4689 32.3588C49.8401 32.3588 50.6535 31.9925 50.8388 29.2123ZM25.0799 30.1553V28.9501C24.7738 29.03 24.3889 29.0935 24.0364 29.0935C23.1768 29.0935 22.9466 28.7443 22.9466 27.4457V23.4189H25.0799V22.3108H22.9466V19.3623L21.5659 19.7574V22.3108H20V23.4189H21.5659V27.9519C21.5659 29.6478 22.0414 30.313 23.6065 30.313C24.0972 30.313 24.65 30.25 25.0799 30.1553Z" fill="black"/>
<path fill-rule="evenodd" clip-rule="evenodd" d="M32.7344 25.4789C32.7344 23.6727 31.8277 22.1671 29.6799 22.1671C27.5155 22.1671 26.2731 23.9262 26.2731 26.2872C26.2731 29.0607 27.5315 30.329 29.8796 30.329C30.8319 30.329 31.7221 30.1551 32.4579 29.8383L32.3364 28.6804C31.7221 28.9823 30.892 29.1718 30.109 29.1718C28.4831 29.1718 27.6385 28.2677 27.7009 26.1614H32.6889C32.7192 25.8922 32.7344 25.6699 32.7344 25.4789ZM31.3219 25.1466H27.7623C27.9164 23.9898 28.6198 23.2129 29.6185 23.2129C30.693 23.2129 31.3522 23.9899 31.3219 25.1466H31.3219ZM44.5134 25.4789C44.5134 23.6727 43.6082 22.1671 41.4604 22.1671C39.2944 22.1671 38.052 23.9262 38.052 26.2872C38.052 29.0607 39.3112 30.329 41.6579 30.329C42.6102 30.329 43.4996 30.1551 44.2354 29.8383L44.114 28.6804C43.4996 28.9823 42.6711 29.1718 41.8895 29.1718C40.262 29.1718 39.4168 28.2677 39.4798 26.1614H44.467C44.4975 25.8922 44.5134 25.6699 44.5134 25.4789ZM43.1016 25.1466H39.5414C39.694 23.9898 40.4003 23.2129 41.3989 23.2129C42.472 23.2129 43.1321 23.9899 43.1016 25.1466ZM59.5588 30.1869C59.5444 29.5048 59.527 28.6649 59.527 27.9199V24.7815C59.527 23.2129 58.8989 22.1519 56.7056 22.1519C55.6916 22.1519 54.7706 22.4046 54.0346 22.7217L54.1713 23.9429C54.8328 23.53 55.7532 23.2928 56.4747 23.2928C57.734 23.2928 58.1463 23.8791 58.1463 24.972V25.5585C55.2611 25.5585 53.5585 26.652 53.5585 28.3793C53.5585 29.6319 54.4181 30.329 55.6765 30.329C56.935 30.329 57.9018 29.5845 58.2701 28.6176H58.3012C58.2253 29.0609 58.2253 29.632 58.2253 30.1869H59.5588ZM58.1463 26.6991C58.1463 27.9369 57.3193 29.2051 56.0753 29.2051C55.3698 29.2051 54.9096 28.7752 54.9096 28.1102C54.9096 27.3969 55.4929 26.5569 58.1464 26.5569V26.6991H58.1463Z" fill="black"/>
<path d="M65.7871 30.1553V28.9501C65.4795 29.03 65.0969 29.0935 64.7437 29.0935C63.8848 29.0935 63.6538 28.7443 63.6538 27.4457V23.4189H65.7871V22.3108H63.6538V19.3623L62.2716 19.7574V22.3108H60.7086V23.4189H62.2716V27.9519C62.2716 29.6478 62.7484 30.313 64.3137 30.313C64.8051 30.313 65.3564 30.25 65.7871 30.1553Z" fill="black"/>
<path fill-rule="evenodd" clip-rule="evenodd" d="M73.4417 25.4788C73.4417 23.6726 72.5349 22.167 70.3857 22.167C68.2221 22.167 66.9781 23.9261 66.9781 26.2871C66.9781 29.0607 68.2373 30.3289 70.5854 30.3289C71.5362 30.3289 72.4271 30.155 73.1645 29.8383L73.0407 28.6804C72.4271 28.9822 71.5992 29.1717 70.8163 29.1717C69.1887 29.1717 68.3442 28.2676 68.4073 26.1613H73.3939C73.4243 25.8922 73.4417 25.6698 73.4417 25.4788ZM72.0277 25.1466H68.4682C68.6207 23.9897 69.327 23.2128 70.3243 23.2128C71.3997 23.2128 72.0596 23.9898 72.0277 25.1466Z" fill="black"/>
<path d="M75.9008 24.2561C75.9008 23.2032 76.8189 22.3503 77.9506 22.3503C79.0829 22.3503 80.0004 23.2032 80.0004 24.2561C80.0004 25.308 79.0831 26.1615 77.9506 26.1615C76.8191 26.1615 75.9008 25.308 75.9008 24.2561V24.2561ZM75.9008 19.9043C75.9008 18.8526 76.8191 18 77.9506 18C79.0829 18 80.0004 18.8526 80.0004 19.9043C80.0004 20.957 79.0831 21.8094 77.9506 21.8094C76.8191 21.8094 75.9008 20.957 75.9008 19.9044" fill="#2B7BB3"/>
<path fill-rule="evenodd" clip-rule="evenodd" d="M34.6988 18.7656H36.1084V30.3563H34.6988V18.7656Z" fill="black"/>
<path d="M227.041 32.9317C226.183 32.9317 224.905 32.6692 224.747 32.6334V31.3561C225.168 31.4434 226.253 31.6244 227.024 31.6244C227.917 31.6244 228.494 30.8653 228.494 29.5174C228.494 27.9239 228.232 27.0837 226.989 27.0837H225.553V25.8055H226.814C228.232 25.8055 228.302 24.3521 228.302 23.6518C228.302 22.2682 227.864 21.708 226.989 21.708C226.218 21.708 225.343 21.9008 224.835 22.0058V20.7278C225.028 20.6926 226.061 20.4302 226.954 20.4302C228.757 20.4302 229.79 21.2003 229.79 23.8097C229.79 25.0001 229.37 26.0504 228.442 26.3834C229.51 26.4532 230 27.6262 230 29.3424C230 31.9511 228.985 32.9317 227.041 32.9317ZM218.987 21.708C217.412 21.708 216.886 22.7766 216.886 26.6283C216.886 30.3931 217.412 31.6537 218.987 31.6537C220.563 31.6537 221.088 30.3929 221.088 26.6283C221.088 22.7766 220.563 21.708 218.987 21.708H218.987ZM218.987 32.9317C216.098 32.9317 215.328 30.8307 215.328 26.5409C215.328 22.4261 216.098 20.4302 218.987 20.4302C221.876 20.4302 222.646 22.4261 222.646 26.5409C222.646 30.8307 221.876 32.9317 218.987 32.9317H218.987ZM210.267 21.691C209.304 21.691 208.621 21.7958 208.621 21.7958V26.9083H210.267C211.247 26.9083 211.93 26.2604 211.93 24.3521C211.93 22.6009 211.51 21.691 210.267 21.691ZM210.092 28.1866H208.621V32.8087H207.098V20.5526C207.098 20.5526 208.604 20.4303 210.057 20.4303C212.718 20.4303 213.489 22.076 213.489 24.2296C213.489 26.8913 212.578 28.1867 210.092 28.1867V28.1866ZM202.178 27.1188V32.8089H200.602V27.1188L197.468 20.5526H199.149L201.46 25.5077L203.771 20.5526H205.364L202.178 27.1188ZM194.007 21.8838V32.8089H192.484V21.8837H189.787V20.5525H196.703V21.8837L194.007 21.8838Z" fill="black"/>
<path d="M182.447 27.7511C182.2 27.8241 182.002 27.8491 181.745 27.8491C179.628 27.8491 176.52 20.454 176.52 17.9927C176.52 17.0862 176.735 16.7838 177.038 16.5249C174.447 16.827 171.339 17.7771 170.345 18.986C170.13 19.2883 170 19.7633 170 20.3675C170 24.2106 174.102 32.9318 176.995 32.9318C178.333 32.9318 180.59 30.7299 182.447 27.7511ZM181.096 16.2656C183.773 16.2656 186.451 16.6974 186.451 18.2086C186.451 21.2743 184.508 24.9875 183.515 24.9875C181.745 24.9875 179.542 20.0655 179.542 17.6044C179.542 16.4815 179.974 16.2656 181.096 16.2656Z" fill="#FF8700"/>
<path d="M349.585 28.8188V28.8157L344.144 28.8195L349.214 20.9521L341.202 20.9507L339.719 23.2384L345.135 23.2422L340.068 31.1038L348.1 31.1035L349.581 28.8188H349.585Z" fill="#454A54"/>
<path d="M358.93 26.7885C358.971 26.5358 358.992 26.2833 358.993 26.0302C358.994 24.5536 358.53 23.2952 357.602 22.2546C356.675 21.2136 355.552 20.6933 354.234 20.6923C352.916 20.6916 351.792 21.2112 350.861 22.2508C349.933 23.2901 349.468 24.5488 349.467 26.0254C349.466 27.5016 349.93 28.7611 350.858 29.8024C351.788 30.8427 352.911 31.3633 354.229 31.364C355.547 31.3643 356.67 30.8457 357.598 29.8058L357.609 29.7941L356.165 28.1732L356.154 28.1852C355.622 28.7806 354.981 29.0776 354.23 29.0776C353.479 29.077 352.838 28.7789 352.307 28.1831C351.945 27.7777 351.708 27.3133 351.594 26.7892H358.93V26.7885ZM352.309 23.8707C352.841 23.2757 353.482 22.9786 354.232 22.9786C354.984 22.9797 355.625 23.277 356.156 23.8728C356.333 24.0714 356.478 24.2823 356.592 24.5046L351.873 24.5022C351.986 24.2796 352.132 24.0693 352.309 23.8707ZM362.849 28.1931C362.317 27.597 362.051 26.8791 362.051 26.0374L362.049 23.2307L364.77 23.2297L364.769 20.9426L362.048 20.9437L362.047 18.2656L360.004 19.191L360.008 26.0388C360.009 27.515 360.473 28.7738 361.404 29.8137C362.332 30.8529 363.456 31.3729 364.774 31.3719L364.773 29.0852C364.021 29.0855 363.38 28.7878 362.849 28.1931ZM368.22 28.1931C367.689 27.597 367.423 26.8791 367.423 26.0374L367.421 23.2307L370.142 23.2297L370.141 20.9426L367.42 20.9437L367.419 18.2656L365.376 19.191L365.379 26.0388C365.38 27.515 365.845 28.7738 366.775 29.8137C367.704 30.8529 368.827 31.3729 370.145 31.3719L370.144 29.0852C369.393 29.0855 368.752 28.7878 368.22 28.1931ZM377.958 20.9385L377.96 21.595C377.588 21.3059 377.189 21.0888 376.765 20.9385C376.286 20.7684 375.774 20.6844 375.23 20.6919C374.728 20.6988 374.256 20.7814 373.812 20.9385C373.09 21.1937 372.445 21.6461 371.878 22.2978C370.961 23.3508 370.51 24.615 370.527 26.0916C370.542 27.5682 371.02 28.8204 371.959 29.8483C372.495 30.4342 373.095 30.8444 373.754 31.0903C374.25 31.2755 374.779 31.3702 375.345 31.3626C375.869 31.3551 376.359 31.2621 376.815 31.0903C377.22 30.9377 377.598 30.723 377.944 30.4441V31.0903H380V20.9385H377.958ZM377.234 28.1567C376.709 28.759 376.071 29.066 375.321 29.0759C374.569 29.0862 373.925 28.7971 373.387 28.2089C372.849 27.6203 372.576 26.9058 372.567 26.0638C372.558 25.2221 372.816 24.5001 373.34 23.8975C373.865 23.2945 374.504 22.9886 375.254 22.9783C376.005 22.968 376.65 23.2568 377.188 23.845C377.725 24.4332 377.998 25.148 378.008 25.9897C378.017 26.8321 377.759 27.5537 377.234 28.1567Z" fill="#454A54"/>
<path d="M334.903 18.2788L322.291 32.2751L332.138 32.2765L334.91 28.8171H330.033L334.903 23.2408V18.2788Z" fill="#1082C5"/>
<path d="M320.007 32.2765L332.619 18.2802L322.772 18.2788L320 21.7382H324.877L320.007 27.3145V32.2765Z" fill="#2A307D"/>
<path d="M529.831 40.4289C529.886 40.3855 529.93 40.33 529.959 40.2668C529.99 40.1796 530.004 40.0873 529.999 39.9949V31.0959C530.003 31.002 529.99 30.908 529.959 30.8191C529.931 30.7573 529.887 30.7039 529.831 30.6645C529.696 30.5614 529.382 30.5098 528.889 30.5098C528.396 30.5098 528.077 30.5614 527.932 30.6645C527.877 30.7039 527.833 30.7573 527.804 30.8191C527.776 30.9085 527.765 31.0024 527.772 31.0959V39.9999C527.764 40.0788 527.774 40.1584 527.801 40.2331C527.827 40.3077 527.871 40.3755 527.927 40.4314C528.062 40.5345 528.381 40.586 528.884 40.586C529.387 40.586 529.703 40.5336 529.831 40.4289ZM523.162 40.4788C523.627 40.3283 524.054 40.0799 524.414 39.7505C524.742 39.449 524.992 39.0746 525.146 38.6581C525.303 38.2135 525.381 37.7451 525.377 37.2738V31.0959C525.386 31.0162 525.377 30.9353 525.35 30.8596C525.323 30.7839 525.279 30.7154 525.221 30.6595C525.074 30.5564 524.76 30.5048 524.279 30.5048C523.798 30.5048 523.479 30.5564 523.322 30.6595C523.264 30.6969 523.219 30.7508 523.192 30.8141C523.158 30.9043 523.141 30.9998 523.142 31.0959V37.2464C523.14 37.5011 523.097 37.7538 523.014 37.9946C522.913 38.2676 522.714 38.4934 522.455 38.6281C522.104 38.8094 521.711 38.8954 521.315 38.8775C521.032 38.8835 520.749 38.8439 520.478 38.7603C520.267 38.6942 520.073 38.5807 519.912 38.4286C519.763 38.2841 519.652 38.1062 519.586 37.9098C519.516 37.6949 519.481 37.47 519.484 37.2439V31.0959C519.493 31.0162 519.484 30.9353 519.457 30.8596C519.43 30.7839 519.386 30.7154 519.328 30.6595C519.181 30.5564 518.867 30.5048 518.386 30.5048C517.905 30.5048 517.586 30.5564 517.429 30.6595C517.371 30.6969 517.326 30.7508 517.299 30.8141C517.272 30.9055 517.262 31.001 517.269 31.0959V37.2713C517.264 37.7426 517.342 38.211 517.499 38.6556C517.649 39.0747 517.896 39.4526 518.221 39.758C518.582 40.0838 519.009 40.3288 519.474 40.4763C520.676 40.8254 521.954 40.8254 523.157 40.4763L523.162 40.4788ZM512.233 40.4289C512.287 40.3859 512.329 40.3302 512.355 40.2668C512.384 40.1791 512.397 40.087 512.393 39.9949V32.4004H514.623C514.758 32.404 514.893 32.3881 515.024 32.353C515.075 32.3359 515.123 32.3089 515.164 32.2733C515.205 32.2378 515.238 32.1945 515.262 32.146C515.342 31.9731 515.394 31.7888 515.417 31.5997C515.449 31.4151 515.468 31.2284 515.472 31.0411C515.475 30.9511 515.465 30.8612 515.442 30.7742C515.423 30.7103 515.381 30.6554 515.324 30.6196C515.276 30.5922 515.224 30.5736 515.169 30.5647C515.072 30.5508 514.974 30.545 514.876 30.5472H507.933C507.798 30.5435 507.663 30.5595 507.532 30.5946C507.479 30.6103 507.429 30.6368 507.386 30.6724C507.343 30.708 507.307 30.7519 507.282 30.8016C507.205 30.9519 507.152 31.1136 507.126 31.2805C507.09 31.4838 507.071 31.69 507.071 31.8965C507.072 31.9904 507.086 32.0837 507.114 32.1734C507.134 32.2385 507.178 32.2938 507.237 32.328C507.377 32.3884 507.53 32.4132 507.683 32.4004H510.166V39.9899C510.156 40.0708 510.166 40.1529 510.195 40.2289C510.224 40.305 510.272 40.3728 510.334 40.4264C510.469 40.5295 510.788 40.581 511.291 40.581C511.793 40.581 512.107 40.5311 512.23 40.4314L512.233 40.4289ZM471.551 25.1001H479.366C480.137 25.1001 480.709 25.3495 480.934 26.4245C481.185 27.6291 481.089 28.4671 479.721 28.5619L477.266 28.7365C479.075 40.0847 489.623 43.7859 495.368 31.5573C496.32 29.5346 496.621 29.1655 497.671 29.4224C499.081 29.7716 499.274 30.4998 498.598 32.5325C493.639 47.6069 476.948 49.1184 473.673 28.9934L471.686 29.1356C470.065 29.2503 470 27.8885 470 27.1403C469.995 25.6363 470.554 25.1001 471.551 25.1001Z" fill="#D40E14"/>
<path d="M499.949 13.032C501.549 13.032 502.845 11.7411 502.845 10.1488C502.845 8.55647 501.549 7.26562 499.949 7.26562C498.349 7.26562 497.053 8.55647 497.053 10.1488C497.053 11.7411 498.349 13.032 499.949 13.032Z" fill="#D40E14"/>
<path d="M35 85.2656H65V115.228H35V85.2656Z" fill="#DA1A32"/>
<path d="M49.8944 102.67C45.027 102.67 41.0645 102.717 41.0645 102.764C41.0645 102.826 45.0114 102.857 49.8944 102.857C54.7774 102.857 58.7243 102.811 58.7243 102.764C58.7243 102.717 54.7618 102.67 49.8944 102.67Z" fill="white"/>
<path d="M55.7621 100.441H55.2785L53.3128 93.8663L51.2692 100.441H50.7855L48.9291 93.2119H49.2567L51.0352 100.13H51.0508L53.188 93.2431H53.4689L55.5281 100.13L57.4158 93.2119H57.7434L55.7621 100.441ZM56.979 92.5264C56.7762 92.5264 56.6046 92.6666 56.5266 92.8847L55.4033 97.4032L53.9837 92.5264H52.8604C52.6732 92.5264 52.5016 92.651 52.408 92.8847L51.0976 97.4032L50.0055 92.9003V92.8847C49.9275 92.6666 49.7559 92.5264 49.5531 92.5264H47.8682L50.1771 101.174L50.2083 101.298H51.8308L53.266 96.5618L54.7013 101.298H56.3238L58.6795 92.5419H56.979V92.5264ZM46.7294 97.1539C46.7294 98.1199 46.745 99.1327 45.965 99.9117C45.4969 100.379 44.7949 100.644 43.9681 100.644H41.8308V93.1963H43.9681C44.7949 93.1963 45.4813 93.4456 45.965 93.9286C46.745 94.7077 46.745 95.6425 46.7294 96.6241V97.1539ZM46.589 93.3833C46.0274 92.8224 45.2161 92.5264 44.2489 92.5264H41.0352V101.283H44.2489C45.2161 101.283 46.0274 100.987 46.589 100.426C47.5094 99.5066 47.4938 98.3225 47.4938 97.185V96.5618C47.4938 95.3932 47.4938 94.3026 46.589 93.3833ZM45.2005 99.0392C44.9353 99.3664 44.5921 99.5066 44.0929 99.5066H43.0008V94.3182H44.0929C44.5921 94.3182 44.9353 94.4584 45.2005 94.7856C45.4657 95.1128 45.5281 95.627 45.5281 96.8734C45.5125 98.1199 45.4813 98.6964 45.2005 99.0392ZM45.7465 94.1468C45.3253 93.7261 44.7169 93.508 43.9837 93.508H42.1428V100.301H43.9681C44.7169 100.301 45.3253 100.083 45.7309 99.6624C46.4174 98.9768 46.4174 98.0887 46.4018 97.1383V96.6086C46.4174 95.6581 46.433 94.8323 45.7465 94.1468Z" fill="white"/>
<path d="M42.2728 107.017L42.616 104.742L43.1776 104.664L43.084 105.303H43.6456L43.5832 105.77H43.0216L42.8344 106.985C42.8188 107.063 42.85 107.095 42.9436 107.095C43.0528 107.095 43.1932 107.048 43.318 107.001L43.4428 107.375C43.2556 107.468 43.0216 107.546 42.7564 107.546C42.3976 107.546 42.226 107.344 42.2728 107.017ZM58.9342 107.017L59.2775 104.742L59.8391 104.664L59.7455 105.303H60.3071L60.2447 105.77H59.6831L59.4959 106.985C59.4803 107.063 59.5115 107.095 59.6051 107.095C59.7143 107.095 59.8547 107.048 59.9795 107.001L60.1043 107.375C59.9171 107.468 59.6831 107.546 59.4179 107.546C59.0591 107.546 58.8874 107.344 58.9342 107.017ZM45.3149 105.942C45.3149 105.926 45.3305 105.786 45.1901 105.786C45.0497 105.786 44.7377 105.926 44.5349 106.035L44.3165 107.5H43.7704L44.0981 105.334L44.5661 105.256V105.521C44.8469 105.365 45.1901 105.24 45.4553 105.24C45.7673 105.24 45.8765 105.443 45.8921 105.677C45.8921 105.77 45.8921 105.817 45.8765 105.895L45.6425 107.484H45.0965L45.3149 105.942ZM46.7502 106.861C46.7346 106.985 46.719 107.095 46.9218 107.095C47.1558 107.095 47.4834 106.985 47.7642 106.845L47.889 107.266C47.6238 107.422 47.2182 107.562 46.8438 107.562C46.2509 107.562 46.1261 107.235 46.1885 106.783L46.2821 106.113C46.3601 105.599 46.5942 105.287 47.265 105.287C47.6862 105.287 47.9826 105.505 47.9982 105.864C48.0138 106.253 47.7642 106.487 47.1558 106.674C46.8906 106.752 46.8438 106.767 46.7346 106.799L46.7502 106.861ZM47.499 105.864C47.499 105.77 47.4054 105.692 47.265 105.692C47.0154 105.692 46.9062 105.848 46.875 106.051L46.8438 106.269C46.9218 106.253 46.9374 106.238 47.1714 106.175C47.4054 106.097 47.499 106.004 47.499 105.864ZM56.9842 105.77C56.7346 105.91 56.563 106.019 56.3445 106.16L56.1417 107.515H55.5957L55.9233 105.349L56.3913 105.272L56.3757 105.599C56.5318 105.49 56.7502 105.349 56.9374 105.272L56.9842 105.77ZM56.9998 107.406L57.0934 107.001C57.265 107.063 57.499 107.11 57.7174 107.11C57.967 107.11 58.0138 107.063 58.0294 106.923C58.045 106.783 58.0294 106.736 57.6862 106.58C57.2182 106.347 57.1558 106.191 57.2026 105.848C57.265 105.412 57.4366 105.272 58.0294 105.272C58.2322 105.272 58.513 105.318 58.7002 105.381L58.6222 105.801C58.4506 105.755 58.201 105.723 58.045 105.723C57.8266 105.723 57.7642 105.739 57.733 105.895C57.7174 106.051 57.7486 106.082 57.9982 106.206C58.513 106.487 58.6066 106.565 58.5598 106.908C58.4818 107.406 58.3258 107.562 57.7018 107.562C57.499 107.546 57.2026 107.5 56.9998 107.406ZM50.0419 107.406L50.1355 107.001C50.3071 107.063 50.5411 107.11 50.7595 107.11C51.0091 107.11 51.0559 107.063 51.0715 106.923C51.0871 106.783 51.0715 106.736 50.7283 106.58C50.2603 106.347 50.1979 106.191 50.2447 105.848C50.3071 105.412 50.4787 105.272 51.0715 105.272C51.2743 105.272 51.5552 105.318 51.7424 105.381L51.6644 105.801C51.4928 105.755 51.2431 105.723 51.0871 105.723C50.8687 105.723 50.8063 105.739 50.7751 105.895C50.7595 106.051 50.7907 106.082 51.0403 106.206C51.5552 106.487 51.6488 106.565 51.602 106.908C51.524 107.406 51.3679 107.562 50.7439 107.562C50.5411 107.546 50.2291 107.5 50.0419 107.406ZM48.201 107.406L48.2946 107.001C48.4662 107.063 48.7002 107.11 48.9186 107.11C49.1683 107.11 49.2151 107.063 49.2307 106.923C49.2463 106.783 49.2307 106.736 48.8874 106.58C48.4194 106.347 48.357 106.191 48.4038 105.848C48.4662 105.412 48.6378 105.272 49.2307 105.272C49.4335 105.272 49.7143 105.318 49.9015 105.381L49.8235 105.801C49.6519 105.755 49.4023 105.723 49.2463 105.723C49.0279 105.723 48.9655 105.739 48.9342 105.895C48.9186 106.051 48.9499 106.082 49.1995 106.206C49.7143 106.487 49.8079 106.565 49.7611 106.908C49.6831 107.406 49.5271 107.562 48.903 107.562C48.7002 107.546 48.3882 107.5 48.201 107.406ZM40.3071 105.318L40.3851 104.757H41.5864L41.6644 104.274H39.9171L39.3555 108.014H39.9015L40.2291 105.786H41.3992L41.1339 107.515H41.68L42.0076 105.318H40.3071ZM53.708 105.318L53.786 104.757H54.9873L55.0653 104.274H53.318L52.7564 108.014H53.3024L53.63 105.786H54.7845L54.5193 107.515H55.0653L55.3929 105.318H53.708Z" fill="white"/>
<path d="M227 97.1157V96.7407H222.125C221.5 96.7407 221 97.2407 221 97.8657V103.116C221 103.741 221.5 104.241 222.125 104.241H225.875C226.5 104.241 227 103.741 227 103.116V102.741H222.7C222.6 102.741 222.5 102.641 222.5 102.541V101.241H225.875C226.5 101.241 227 100.741 227 100.116V99.7407H222.5V98.4407C222.5 98.3407 222.6 98.2407 222.7 98.2407H225.875C226.5 98.2407 227 97.7407 227 97.1157Z" fill="#6428B4"/>
<path d="M219.5 99.3407C219.475 97.8907 218.25 96.7407 216.8 96.7407H213.125C212.5 96.7407 212 97.2407 212 97.8657V104.241H212.375C213 104.241 213.5 103.741 213.5 103.116V101.991H216.475L217.55 103.866C217.675 104.091 217.925 104.241 218.2 104.241H219.5L218.05 101.716C218.925 101.291 219.525 100.366 219.5 99.3407ZM213.725 98.2407H216.85C217.45 98.2407 217.95 98.7157 218 99.3157C218.025 99.9657 217.525 100.491 216.875 100.491H213.5V98.4657C213.5 98.3407 213.6 98.2407 213.725 98.2407Z" fill="#6428B4"/>
<path d="M189.2 97.0407L186.65 99.5907C186.55 99.6907 186.425 99.6907 186.325 99.5907L183.8 97.0407C183.6 96.8407 183.325 96.7407 183.05 96.7407C182.475 96.7407 182 97.2157 182 97.7907V104.241H182.375C183 104.241 183.5 103.741 183.5 103.116V99.0907C183.5 98.9907 183.6 98.9657 183.675 99.0157L185.7 101.041C186.15 101.491 186.85 101.491 187.3 101.041L189.325 99.0157C189.4 98.9407 189.5 98.9907 189.5 99.0907V104.241H189.875C190.5 104.241 191 103.741 191 103.116V97.7907C191 97.2157 190.525 96.7407 189.95 96.7407H189.925C189.65 96.7407 189.4 96.8407 189.2 97.0407Z" fill="#6428B4"/>
<path d="M179.375 104.241H179V97.8657C179 97.2407 179.5 96.7407 180.125 96.7407H180.5V103.116C180.5 103.741 180 104.241 179.375 104.241Z" fill="#6428B4"/>
<path d="M174.8 96.7407H171.125C170.5 96.7407 170 97.2407 170 97.8657V104.241H170.375C171 104.241 171.5 103.741 171.5 103.116V101.991H174.875C176.3 101.991 177.475 100.841 177.5 99.4157C177.525 97.9407 176.275 96.7407 174.8 96.7407ZM174.85 100.491H171.5V98.4657C171.5 98.3407 171.6 98.2407 171.725 98.2407H174.875C175.525 98.2407 176.025 98.7657 176 99.4157C175.975 100.016 175.45 100.491 174.85 100.491Z" fill="#6428B4"/>
<path d="M206.75 96.7406C205.45 96.7406 204.3 97.4156 203.625 98.4156L200.875 102.566C200.2 103.566 199.05 104.241 197.75 104.241C195.675 104.241 194 102.566 194 100.491C194 98.4156 195.675 96.7406 197.75 96.7406C199.05 96.7406 200.175 97.3906 200.85 98.3906L201.35 99.1406L202.25 97.7906L202.125 97.5906C201.175 96.1906 199.575 95.2656 197.75 95.2656C194.85 95.2656 192.5 97.6156 192.5 100.516C192.5 103.416 194.85 105.766 197.75 105.766C199.575 105.766 201.2 104.841 202.125 103.416L203.15 101.866L203.625 102.591C204.3 103.591 205.45 104.266 206.75 104.266C208.825 104.266 210.5 102.591 210.5 100.516C210.5 98.4406 208.825 96.7406 206.75 96.7406ZM206.75 102.741C205.975 102.741 205.275 102.341 204.875 101.716L204.05 100.491L204.875 99.2406C205.275 98.6406 205.975 98.2406 206.75 98.2406C208 98.2406 209 99.2406 209 100.491C209 101.741 208 102.741 206.75 102.741Z" fill="#6428B4"/>
<path d="M229.601 97.3657C229.601 97.2407 229.476 97.1157 229.351 97.1157H229.001C228.951 97.1157 228.901 97.1657 228.901 97.2157V97.8407H228.976C229.026 97.8407 229.051 97.8157 229.051 97.7657V97.6157H229.326L229.451 97.8157H229.626L229.476 97.5657C229.551 97.5657 229.601 97.4657 229.601 97.3657ZM229.051 97.2657H229.351C229.401 97.2657 229.451 97.3157 229.451 97.3657C229.451 97.4407 229.401 97.4907 229.351 97.4907H229.026V97.2907L229.051 97.2657Z" fill="#6428B4"/>
<path d="M229.25 96.8907C229.575 96.8907 229.85 97.1657 229.85 97.4907C229.85 97.8157 229.575 98.0907 229.25 98.0907C228.925 98.0907 228.65 97.8157 228.65 97.4907C228.65 97.1657 228.925 96.8907 229.25 96.8907ZM229.25 96.7407C228.825 96.7407 228.5 97.0657 228.5 97.4907C228.5 97.9157 228.825 98.2407 229.25 98.2407C229.675 98.2407 230 97.9157 230 97.4907C230 97.0657 229.675 96.7407 229.25 96.7407Z" fill="#6428B4"/>
<path d="M335 85.2656H364.975C364.974 95.2835 364.975 105.301 364.974 115.319C354.983 115.32 344.991 115.319 335 115.319V85.2656ZM360.953 107.004C360.951 107.068 360.951 107.132 360.952 107.195C361.096 107.195 361.239 107.195 361.383 107.195C361.384 107.594 361.383 107.993 361.383 108.392C361.462 108.391 361.54 108.391 361.618 108.391C361.618 107.993 361.618 107.594 361.618 107.195C361.762 107.195 361.906 107.195 362.05 107.195C362.049 107.131 362.049 107.068 362.05 107.004C361.684 107.004 361.318 107.005 360.953 107.004ZM362.323 107.004C362.322 107.466 362.322 107.929 362.323 108.391H362.557C362.559 108.012 362.555 107.634 362.56 107.255C362.716 107.63 362.858 108.012 363.008 108.39C363.058 108.391 363.108 108.391 363.159 108.391C363.31 108.011 363.454 107.628 363.609 107.25C363.612 107.63 363.61 108.011 363.611 108.391C363.688 108.391 363.766 108.391 363.844 108.392C363.847 107.929 363.844 107.467 363.845 107.005C363.727 107.004 363.608 107.004 363.489 107.005C363.357 107.352 363.222 107.698 363.088 108.045C362.954 107.698 362.816 107.351 362.681 107.004C362.562 107.004 362.442 107.004 362.323 107.004ZM338.558 108.483C337.975 108.506 337.387 108.771 337.04 109.252C336.741 109.655 336.622 110.167 336.624 110.663C336.615 111.13 336.709 111.61 336.959 112.01C337.16 112.337 337.47 112.594 337.826 112.738C338.254 112.912 338.735 112.944 339.186 112.851C339.605 112.764 340.002 112.545 340.275 112.212C340.521 111.917 340.663 111.546 340.722 111.169C340.784 110.731 340.768 110.275 340.638 109.85C340.517 109.452 340.271 109.089 339.929 108.849C339.534 108.569 339.037 108.457 338.558 108.483L338.558 108.483ZM342.55 109.075C342.551 108.913 342.551 108.751 342.55 108.589C342.201 108.589 341.852 108.587 341.503 108.59C341.505 109.987 341.503 111.384 341.504 112.78C341.878 112.782 342.252 112.78 342.627 112.781C342.628 111.854 342.624 110.926 342.629 109.999C342.675 109.863 342.799 109.764 342.924 109.7C343.21 109.564 343.534 109.552 343.845 109.549C343.845 109.203 343.845 108.856 343.846 108.51C343.356 108.464 342.866 108.707 342.551 109.075H342.55ZM345.298 108.624C344.917 108.745 344.577 108.993 344.348 109.322C344.596 109.467 344.846 109.608 345.095 109.75C345.308 109.486 345.623 109.303 345.963 109.276C346.206 109.256 346.498 109.268 346.672 109.465C346.795 109.607 346.759 109.804 346.764 109.976C346.192 110.044 345.615 110.138 345.083 110.364C344.782 110.495 344.489 110.682 344.311 110.966C344.113 111.285 344.093 111.692 344.203 112.045C344.293 112.336 344.509 112.585 344.787 112.709C345.105 112.857 345.469 112.849 345.808 112.795C346.147 112.739 346.471 112.607 346.758 112.418C346.79 112.539 346.821 112.66 346.854 112.781C347.181 112.781 347.509 112.781 347.836 112.781C347.824 111.812 347.832 110.843 347.831 109.874C347.85 109.589 347.796 109.286 347.617 109.057C347.384 108.746 346.999 108.599 346.627 108.539C346.185 108.476 345.726 108.487 345.298 108.624ZM350.766 108.534C350.373 108.615 350.03 108.835 349.709 109.067C349.677 108.903 349.64 108.74 349.611 108.575C349.305 108.617 348.999 108.659 348.693 108.702C348.692 110.06 348.693 111.417 348.693 112.774C349.059 112.775 349.425 112.774 349.791 112.774V109.773C350.05 109.557 350.347 109.361 350.689 109.318C350.861 109.299 351.063 109.309 351.189 109.445C351.313 109.59 351.333 109.792 351.338 109.975C351.339 110.908 351.339 111.841 351.339 112.774C351.707 112.775 352.075 112.774 352.443 112.774V109.797C352.439 109.598 352.412 109.397 352.343 109.209C352.253 108.957 352.068 108.739 351.824 108.629C351.495 108.479 351.116 108.467 350.766 108.534L350.766 108.534ZM353.635 109.144C353.298 109.599 353.18 110.182 353.191 110.74C353.196 111.249 353.309 111.782 353.632 112.187C353.887 112.517 354.286 112.721 354.698 112.764C354.999 112.793 355.32 112.78 355.589 112.627C355.776 112.523 355.907 112.348 356.017 112.169C356.026 112.345 356.02 112.522 356.022 112.698C356.015 112.932 355.981 113.186 355.819 113.367C355.672 113.531 355.442 113.589 355.23 113.589C355.006 113.592 354.764 113.585 354.571 113.459C354.474 113.397 354.425 113.288 354.396 113.181C354.033 113.239 353.67 113.298 353.307 113.356C353.373 113.695 353.61 113.983 353.909 114.146C354.376 114.405 354.931 114.434 355.452 114.384C355.903 114.339 356.38 114.21 356.702 113.87C356.991 113.565 357.081 113.131 357.088 112.723V108.576C356.776 108.578 356.465 108.571 356.154 108.579C356.129 108.734 356.099 108.887 356.072 109.042C355.976 108.842 355.788 108.703 355.586 108.621C355.321 108.513 355.029 108.487 354.744 108.503C354.303 108.537 353.893 108.787 353.635 109.144ZM358.227 109.112C357.924 109.473 357.789 109.946 357.755 110.41C357.722 110.915 357.77 111.443 358.001 111.902C358.18 112.259 358.487 112.552 358.859 112.7C359.337 112.893 359.874 112.891 360.372 112.786C360.859 112.679 361.318 112.386 361.566 111.944C361.295 111.795 361.025 111.645 360.755 111.494C360.634 111.668 360.487 111.83 360.296 111.926C360.081 112.036 359.831 112.05 359.596 112.016C359.369 111.983 359.153 111.857 359.029 111.662C358.876 111.421 358.834 111.127 358.832 110.847C359.757 110.847 360.681 110.847 361.606 110.847C361.637 110.478 361.602 110.102 361.496 109.747C361.379 109.362 361.142 109.006 360.8 108.788C360.381 108.517 359.857 108.458 359.37 108.515C358.934 108.568 358.509 108.769 358.227 109.112Z" fill="#FF6600"/>
<path d="M359.089 109.494C359.223 109.342 359.422 109.261 359.621 109.249C359.874 109.23 360.151 109.301 360.324 109.498C360.478 109.669 360.529 109.905 360.535 110.128C359.973 110.128 359.411 110.129 358.849 110.127C358.868 109.9 358.934 109.666 359.089 109.494V109.494ZM354.981 109.297C355.24 109.249 355.521 109.332 355.704 109.524C355.92 109.744 356.007 110.057 356.026 110.358C356.034 110.579 356.025 110.801 355.99 111.019C355.951 111.249 355.874 111.484 355.708 111.654C355.557 111.807 355.337 111.878 355.125 111.872C354.928 111.878 354.72 111.816 354.583 111.667C354.4 111.477 354.339 111.207 354.309 110.953C354.285 110.694 354.278 110.432 354.312 110.173C354.344 109.946 354.414 109.716 354.566 109.539C354.672 109.413 354.819 109.327 354.981 109.297ZM338.513 109.43C338.781 109.39 339.081 109.434 339.29 109.618C339.487 109.788 339.583 110.044 339.626 110.295C339.672 110.577 339.67 110.867 339.615 111.147C339.565 111.393 339.456 111.641 339.251 111.796C339.024 111.965 338.718 111.995 338.447 111.939C338.225 111.894 338.028 111.75 337.915 111.554C337.752 111.27 337.716 110.933 337.722 110.61C337.733 110.321 337.784 110.02 337.949 109.775C338.077 109.585 338.287 109.459 338.513 109.43ZM345.747 110.877C346.06 110.748 346.398 110.69 346.732 110.648C346.733 110.974 346.731 111.301 346.733 111.628C346.453 111.879 346.097 112.077 345.712 112.07C345.583 112.073 345.455 112.018 345.368 111.924C345.2 111.736 345.176 111.438 345.306 111.222C345.402 111.056 345.575 110.952 345.747 110.877V110.877Z" fill="#FF6600"/>
<path d="M364.975 85.2656H365V115.345H335V115.319C344.991 115.319 354.983 115.32 364.974 115.319C364.975 105.301 364.974 95.2835 364.975 85.2656H364.975Z" fill="#FDD9BD"/>
<path d="M360.953 107.004C361.319 107.005 361.684 107.004 362.05 107.004C362.05 107.068 362.05 107.131 362.05 107.195C361.906 107.195 361.762 107.195 361.619 107.195C361.618 107.594 361.618 107.992 361.618 108.391C361.54 108.391 361.462 108.391 361.384 108.392C361.383 107.992 361.384 107.594 361.383 107.195C361.24 107.195 361.096 107.195 360.953 107.196C360.952 107.132 360.952 107.068 360.953 107.004V107.004ZM362.323 107.004C362.442 107.004 362.562 107.004 362.682 107.004C362.817 107.351 362.954 107.698 363.089 108.045C363.223 107.698 363.358 107.352 363.49 107.005C363.608 107.004 363.727 107.004 363.846 107.005C363.845 107.467 363.847 107.929 363.845 108.392C363.767 108.391 363.689 108.391 363.611 108.391C363.61 108.011 363.612 107.63 363.609 107.25C363.455 107.628 363.311 108.011 363.16 108.391C363.109 108.391 363.058 108.391 363.008 108.39C362.859 108.012 362.717 107.63 362.56 107.255C362.555 107.634 362.559 108.012 362.558 108.391H362.323C362.322 107.929 362.322 107.466 362.323 107.004V107.004ZM338.558 108.483C339.038 108.457 339.534 108.568 339.93 108.849C340.272 109.089 340.518 109.452 340.639 109.85C340.768 110.275 340.785 110.731 340.722 111.169C340.664 111.546 340.521 111.917 340.275 112.212C340.002 112.545 339.606 112.764 339.187 112.851C338.735 112.944 338.255 112.912 337.826 112.738C337.47 112.594 337.161 112.337 336.959 112.01C336.71 111.61 336.616 111.13 336.625 110.663C336.622 110.167 336.741 109.655 337.04 109.252C337.388 108.771 337.975 108.506 338.558 108.483V108.483ZM338.513 109.43C338.287 109.459 338.077 109.585 337.949 109.775C337.784 110.019 337.733 110.321 337.723 110.61C337.716 110.932 337.752 111.27 337.915 111.554C338.028 111.75 338.225 111.894 338.447 111.939C338.719 111.995 339.024 111.965 339.252 111.795C339.456 111.641 339.565 111.392 339.615 111.147C339.67 110.867 339.672 110.576 339.626 110.295C339.583 110.044 339.488 109.788 339.291 109.618C339.081 109.434 338.781 109.39 338.513 109.43H338.513ZM342.551 109.075C342.866 108.707 343.356 108.464 343.846 108.51C343.845 108.856 343.846 109.203 343.846 109.549C343.535 109.552 343.211 109.563 342.925 109.7C342.8 109.764 342.675 109.863 342.629 109.999C342.625 110.926 342.629 111.854 342.627 112.781C342.253 112.78 341.878 112.782 341.504 112.78C341.504 111.383 341.505 109.987 341.503 108.59C341.852 108.587 342.202 108.589 342.551 108.589C342.552 108.75 342.552 108.912 342.551 109.075ZM345.299 108.624C345.726 108.487 346.186 108.476 346.628 108.539C346.999 108.598 347.385 108.746 347.618 109.057C347.797 109.286 347.851 109.589 347.831 109.874C347.832 110.843 347.825 111.812 347.837 112.781C347.509 112.781 347.182 112.781 346.854 112.781C346.822 112.66 346.79 112.539 346.758 112.418C346.471 112.607 346.147 112.739 345.809 112.795C345.47 112.849 345.105 112.857 344.787 112.709C344.509 112.585 344.294 112.336 344.204 112.045C344.093 111.692 344.114 111.285 344.312 110.966C344.489 110.682 344.783 110.495 345.083 110.364C345.616 110.138 346.193 110.044 346.764 109.976C346.76 109.804 346.796 109.607 346.672 109.465C346.499 109.268 346.207 109.255 345.963 109.276C345.623 109.303 345.309 109.486 345.096 109.75C344.846 109.608 344.596 109.467 344.348 109.322C344.578 108.993 344.918 108.745 345.299 108.624V108.624ZM345.747 110.877C345.575 110.952 345.402 111.056 345.306 111.222C345.176 111.438 345.2 111.736 345.368 111.924C345.456 112.018 345.583 112.073 345.712 112.07C346.097 112.077 346.453 111.879 346.733 111.628C346.731 111.301 346.733 110.974 346.732 110.648C346.398 110.69 346.06 110.747 345.747 110.877ZM350.766 108.534C351.117 108.467 351.495 108.479 351.824 108.628C352.069 108.739 352.254 108.957 352.343 109.209C352.412 109.397 352.439 109.598 352.443 109.797V112.774C352.075 112.774 351.707 112.775 351.339 112.774C351.339 111.841 351.34 110.908 351.339 109.975C351.333 109.792 351.313 109.59 351.189 109.445C351.064 109.309 350.861 109.299 350.689 109.318C350.347 109.361 350.05 109.557 349.791 109.773V112.774C349.425 112.774 349.059 112.775 348.693 112.774C348.693 111.417 348.693 110.06 348.693 108.702C348.999 108.659 349.306 108.617 349.611 108.575C349.641 108.74 349.678 108.903 349.71 109.067C350.03 108.835 350.374 108.615 350.766 108.534H350.766ZM353.635 109.143C353.894 108.787 354.303 108.537 354.745 108.503C355.029 108.487 355.321 108.512 355.586 108.621C355.788 108.703 355.976 108.842 356.073 109.042C356.1 108.887 356.13 108.734 356.154 108.579C356.465 108.571 356.777 108.578 357.088 108.576V112.723C357.082 113.131 356.991 113.565 356.703 113.87C356.381 114.21 355.904 114.339 355.452 114.384C354.931 114.434 354.376 114.405 353.909 114.146C353.61 113.983 353.374 113.695 353.308 113.356C353.671 113.298 354.034 113.239 354.397 113.181C354.425 113.288 354.475 113.396 354.571 113.459C354.765 113.585 355.006 113.592 355.23 113.589C355.443 113.588 355.672 113.531 355.82 113.367C355.981 113.186 356.015 112.932 356.022 112.698C356.02 112.522 356.026 112.345 356.018 112.169C355.907 112.348 355.776 112.523 355.589 112.627C355.32 112.78 354.999 112.793 354.698 112.764C354.286 112.721 353.888 112.517 353.632 112.187C353.309 111.782 353.196 111.249 353.192 110.739C353.181 110.181 353.299 109.599 353.635 109.143ZM354.981 109.297C354.819 109.327 354.672 109.413 354.566 109.539C354.414 109.716 354.344 109.946 354.312 110.173C354.278 110.432 354.285 110.694 354.309 110.953C354.339 111.207 354.4 111.477 354.584 111.667C354.72 111.816 354.928 111.878 355.125 111.872C355.337 111.877 355.557 111.807 355.708 111.654C355.874 111.484 355.951 111.249 355.99 111.019C356.025 110.801 356.035 110.579 356.026 110.358C356.007 110.057 355.92 109.744 355.704 109.524C355.521 109.332 355.24 109.249 354.981 109.297ZM358.227 109.112C358.509 108.769 358.935 108.568 359.37 108.515C359.857 108.458 360.381 108.517 360.801 108.788C361.143 109.006 361.38 109.362 361.496 109.747C361.602 110.102 361.638 110.478 361.606 110.847C360.682 110.846 359.757 110.847 358.833 110.846C358.835 111.127 358.877 111.421 359.03 111.662C359.154 111.857 359.369 111.983 359.596 112.016C359.831 112.05 360.082 112.036 360.297 111.926C360.488 111.83 360.635 111.668 360.756 111.494C361.025 111.645 361.295 111.795 361.566 111.944C361.318 112.386 360.859 112.679 360.372 112.786C359.874 112.891 359.338 112.893 358.86 112.7C358.488 112.552 358.18 112.259 358.001 111.902C357.77 111.443 357.723 110.915 357.755 110.409C357.789 109.946 357.924 109.473 358.227 109.112ZM359.089 109.494C358.934 109.666 358.868 109.9 358.85 110.127C359.411 110.129 359.973 110.128 360.535 110.128C360.529 109.904 360.478 109.669 360.325 109.498C360.151 109.301 359.875 109.23 359.621 109.249C359.422 109.261 359.223 109.342 359.089 109.494V109.494Z" fill="white"/>
<path d="M530 105.729C530 107.244 528.76 108.482 527.246 108.482H472.755C471.239 108.482 470 107.244 470 105.729V95.0195C470 93.5048 471.239 92.2656 472.755 92.2656H527.246C528.76 92.2656 530 93.5048 530 95.0195V105.729Z" fill="#EE3243"/>
<path d="M480.291 96.2445H482.39V101.607C482.39 103.609 480.987 104.964 478.752 104.964C476.516 104.964 475.112 103.609 475.112 101.607V96.2445H477.213V101.656C477.213 102.682 477.824 103.219 478.752 103.219C479.679 103.219 480.291 102.682 480.291 101.656V96.2445ZM489.293 104.795L486.093 99.7996V104.795H484.041V96.2444H486.032L489.243 101.241V96.2444H491.296V104.795H489.293ZM495.497 104.794H493.397V96.2443H495.497V104.794ZM498.362 96.2445L501.573 101.241V96.2445H498.362ZM503.961 96.2445H510.153V97.9907H506.062V99.5905H509.791V101.338H506.062V103.049H510.167V104.795H503.961V96.2445ZM517.52 96.2445V98.0161H515.213V104.795H513.111V98.0161H510.804V96.2445H517.52ZM524.889 96.2445V98.0161H522.579V104.795H520.48V98.0161H518.171V96.2445H524.889ZM501.099 104.795L497.888 99.7983V104.795H501.099Z" fill="white"/>
</svg>
