<svg width="42" height="42" viewBox="0 0 42 42" fill="none" xmlns="http://www.w3.org/2000/svg">
<circle cx="21" cy="21" r="21" fill="#C4C4C4"/>
<path d="M21.013 12.9141C18.7555 12.9141 18.4737 12.9244 17.5873 12.9639C16.7023 13.0055 16.0998 13.1447 15.57 13.3503C15.0237 13.5622 14.5597 13.8469 14.0978 14.3087C13.6359 14.7706 13.3506 15.2339 13.1394 15.781C12.9337 16.3107 12.7938 16.9132 12.753 17.7982C12.7114 18.6846 12.7031 18.9665 12.7031 21.224C12.7031 23.4815 12.7135 23.7634 12.753 24.6497C12.7945 25.5341 12.9337 26.1372 13.1394 26.667C13.348 27.2216 13.6751 27.724 14.0978 28.1392C14.5128 28.5622 15.0153 28.8893 15.57 29.0976C16.1005 29.3026 16.703 29.4432 17.5873 29.484C18.4737 29.5256 18.7555 29.5339 21.013 29.5339C23.2706 29.5339 23.5524 29.5235 24.4388 29.484C25.3231 29.4425 25.9263 29.3026 26.456 29.0976C27.0105 28.8887 27.5129 28.5617 27.9283 28.1392C28.3514 27.7243 28.6786 27.2218 28.8867 26.667C29.0917 26.1372 29.2322 25.5341 29.2731 24.6497C29.3147 23.7634 29.323 23.4815 29.323 21.224C29.323 18.9665 29.3126 18.6846 29.2731 17.7982C29.2316 16.9139 29.0917 16.3101 28.8867 15.781C28.678 15.2264 28.3509 14.7241 27.9283 14.3087C27.5136 13.8854 27.011 13.5582 26.456 13.3503C25.9263 13.1447 25.3231 13.0048 24.4388 12.9639C23.5524 12.9224 23.2706 12.9141 21.013 12.9141ZM21.013 14.4098C23.2311 14.4098 23.4956 14.4209 24.3716 14.459C25.1819 14.4971 25.6216 14.6314 25.9138 14.7464C26.303 14.8967 26.5786 15.0767 26.8708 15.3669C27.161 15.6577 27.3411 15.934 27.4913 16.3232C27.6049 16.6154 27.7406 17.0552 27.7773 17.8654C27.8168 18.7421 27.8258 19.0052 27.8258 21.224C27.8258 23.4427 27.8154 23.7066 27.7746 24.5826C27.7323 25.3928 27.5973 25.8325 27.483 26.1248C27.3478 26.4854 27.1353 26.812 26.8605 27.0818C26.5919 27.3569 26.2654 27.5689 25.9048 27.7023C25.614 27.8158 25.1673 27.9516 24.3571 27.9883C23.4749 28.0277 23.2152 28.0367 20.9923 28.0367C18.7687 28.0367 18.509 28.0263 17.6274 27.9855C16.8165 27.9432 16.3699 27.8082 16.079 27.6939C15.7182 27.5604 15.3919 27.3477 15.1241 27.0714C14.8461 26.8046 14.6329 26.4777 14.5008 26.1158C14.3866 25.8249 14.2522 25.3783 14.21 24.568C14.1788 23.6955 14.1677 23.4261 14.1677 21.2136C14.1677 19.0004 14.1788 18.7303 14.21 17.8474C14.2522 17.0372 14.3866 16.5912 14.5008 16.3004C14.6463 15.9056 14.8325 15.6356 15.1241 15.344C15.4142 15.0539 15.685 14.8669 16.079 14.7222C16.3699 14.6072 16.8068 14.4722 17.6171 14.4306C18.5 14.3995 18.7597 14.3891 20.9819 14.3891L21.013 14.4098ZM21.013 16.9568C20.4527 16.9568 19.8978 17.0672 19.3801 17.2817C18.8624 17.4961 18.392 17.8104 17.9957 18.2067C17.5995 18.6029 17.2852 19.0733 17.0707 19.591C16.8563 20.1087 16.7459 20.6636 16.7459 21.224C16.7459 21.7844 16.8563 22.3392 17.0707 22.8569C17.2852 23.3747 17.5995 23.8451 17.9957 24.2413C18.392 24.6376 18.8624 24.9519 19.3801 25.1663C19.8978 25.3808 20.4527 25.4911 21.013 25.4911C22.1448 25.4911 23.2301 25.0416 24.0304 24.2413C24.8306 23.4411 25.2802 22.3557 25.2802 21.224C25.2802 20.0923 24.8306 19.0069 24.0304 18.2067C23.2301 17.4064 22.1448 16.9568 21.013 16.9568ZM21.013 23.994C19.4826 23.994 18.2431 22.7544 18.2431 21.224C18.2431 19.6936 19.4826 18.454 21.013 18.454C22.5435 18.454 23.783 19.6936 23.783 21.224C23.783 22.7544 22.5435 23.994 21.013 23.994ZM26.4463 16.7886C26.4367 17.0466 26.3275 17.2909 26.1415 17.47C25.9555 17.6492 25.7074 17.7493 25.4492 17.7493C25.1909 17.7493 24.9428 17.6492 24.7568 17.47C24.5709 17.2909 24.4616 17.0466 24.452 16.7886C24.452 16.5241 24.557 16.2705 24.744 16.0834C24.931 15.8964 25.1847 15.7914 25.4492 15.7914C25.7136 15.7914 25.9673 15.8964 26.1543 16.0834C26.3413 16.2705 26.4463 16.5241 26.4463 16.7886Z" fill="black"/>
</svg>
